<svg id="Слой_1" data-name="Слой 1" xmlns="http://www.w3.org/2000/svg" viewBox="0 0 321 476">
  <title>4</title>
  <g>
    <path d="M253.40823,110.0969h-183.68a148.037,148.037,0,0,0-56.502,116.44746c0,81.927,148.34178,243.38355,148.34178,243.38355S309.91027,308.47133,309.91027,226.54436A148.03418,148.03418,0,0,0,253.40823,110.0969Z" style="fill: #2f8980"/>
    <circle cx="110.25029" cy="163.15763" r="44.69061" transform="translate(-79.01448 108.80336) rotate(-39.92863)" style="fill: #fff"/>
    <circle cx="110.2504" cy="163.15751" r="17.69819" style="fill: #415050"/>
    <circle cx="212.53647" cy="163.15763" r="44.6906" transform="translate(-53.11937 198.07374) rotate(-45)" style="fill: #fff"/>
    <circle cx="212.53659" cy="163.15751" r="17.69818" style="fill: #415050"/>
    <path d="M309.01065,210.4273A73.68224,73.68224,0,0,0,283.14658,195.854c-67.03526-22.62622-122.17333,17.79609-142.49036,101.61391-13.62618,56.21559,3.87134,126.05052,18.64284,169.95692,1.42411,1.58015,2.26893,2.503,2.26893,2.503S309.91027,308.47133,309.91027,226.54436A149.5847,149.5847,0,0,0,309.01065,210.4273Z" style="fill: #329a93"/>
    <path d="M182.48076,297.46795C162.16369,213.65013,107.02562,173.22782,39.98988,195.854a73.67959,73.67959,0,0,0-25.86359,14.57278,149.60014,149.60014,0,0,0-.90008,16.11754c0,81.927,148.34178,243.38355,148.34178,243.38355s.84484-.92289,2.2694-2.504C178.60893,423.518,196.10693,353.68305,182.48076,297.46795Z" style="fill: #40bcb0"/>
    <polygon points="69.728 111.097 69.728 89.279 161.568 111.097 69.728 111.097" style="fill: #2f8980"/>
    <polygon points="161.568 111.097 253.408 89.279 253.408 111.097 161.568 111.097" style="fill: #2f8980"/>
  </g>
  <g>
    <polygon points="160.493 5.787 72.579 49.121 162.361 88.439 250.276 45.105 160.493 5.787" style="fill: #738c96"/>
    <path d="M162.36117,88.43877,106.85446,64.13121v38.64745a147.47377,147.47377,0,0,0,54.57263,10.11721A147.47531,147.47531,0,0,0,216,102.77866V62Z" style="fill: #415050"/>
  </g>
</svg>
